<svg xmlns="http://www.w3.org/2000/svg" xmlns:xlink="http://www.w3.org/1999/xlink" width="1600" zoomAndPan="magnify" viewBox="0 0 1200 749.999995" height="1000" preserveAspectRatio="xMidYMid meet" version="1.0"><defs><g/><clipPath id="fe77e23ff4"><path d="M 0.359375 0.878906 L 565 0.878906 L 565 459 L 0.359375 459 Z M 0.359375 0.878906 " clip-rule="nonzero"/></clipPath><clipPath id="bc6ae9f890"><rect x="0" width="565" y="0" height="459"/></clipPath><clipPath id="62dc072cf4"><path d="M 0.078125 38 L 244.878906 38 L 244.878906 255 L 0.078125 255 Z M 0.078125 38 " clip-rule="nonzero"/></clipPath><clipPath id="16c17edf59"><rect x="0" width="245" y="0" height="294"/></clipPath><clipPath id="349dabbba6"><path d="M 654 200 L 1131 200 L 1131 658.480469 L 654 658.480469 Z M 654 200 " clip-rule="nonzero"/></clipPath><clipPath id="595f7938e1"><rect x="0" width="477" y="0" height="459"/></clipPath><clipPath id="501efbbf34"><rect x="0" width="1131" y="0" height="659"/></clipPath></defs><g transform="matrix(1, 0, 0, 1, 69, 44)"><g clip-path="url(#501efbbf34)"><g clip-path="url(#fe77e23ff4)"><g transform="matrix(1, 0, 0, 1, -0.000000000000014211, -0.000000000000049738)"><g clip-path="url(#bc6ae9f890)"><g fill="#e2e8ce" fill-opacity="1"><g transform="translate(10.915928, 388.422114)"><g><path d="M 298.246094 8.605469 L 28.101562 8.605469 L 28.101562 -215.082031 L 137.078125 -215.082031 L 137.078125 -91.765625 L 128.472656 -91.765625 L 128.472656 -100.371094 L 252.359375 -100.371094 L 252.359375 -91.765625 L 243.757812 -91.765625 L 243.757812 -229.417969 L 252.359375 -229.417969 L 252.359375 -220.816406 L -6.308594 -220.816406 L -6.308594 -329.789062 L 301.808594 -329.789062 L 352.730469 -278.867188 L 352.730469 -42.320312 L 301.808594 8.605469 Z M 298.246094 -8.605469 L 298.246094 0 L 292.160156 -6.082031 L 338.042969 -51.96875 L 344.128906 -45.882812 L 335.523438 -45.882812 L 335.523438 -275.300781 L 344.128906 -275.300781 L 338.042969 -269.21875 L 292.160156 -315.101562 L 298.246094 -321.1875 L 298.246094 -312.582031 L 2.292969 -312.582031 L 2.292969 -321.1875 L 10.898438 -321.1875 L 10.898438 -229.417969 L 2.292969 -229.417969 L 2.292969 -238.023438 L 260.964844 -238.023438 L 260.964844 -83.164062 L 119.871094 -83.164062 L 119.871094 -206.476562 L 128.472656 -206.476562 L 128.472656 -197.875 L 36.707031 -197.875 L 36.707031 -206.476562 L 45.3125 -206.476562 L 45.3125 0 L 36.707031 0 L 36.707031 -8.605469 Z M 298.246094 -8.605469 "/></g></g></g><g fill="#e2e8ce" fill-opacity="1"><g transform="translate(377.973406, 388.422114)"><g/></g></g></g></g></g><g transform="matrix(1, 0, 0, 1, 391, 184)"><g clip-path="url(#16c17edf59)"><g clip-path="url(#62dc072cf4)"><g fill="#e2e8ce" fill-opacity="1"><g transform="translate(5.737677, 249.299241)"><g><path d="M 157.300781 -105.824219 L 240.949219 5.492188 L 153.980469 5.492188 L 111.910156 -50.300781 L 116.292969 -53.605469 L 120.691406 -50.316406 L 78.910156 5.492188 L -8.070312 5.492188 L 75.578125 -105.824219 L 79.96875 -102.527344 L 75.578125 -99.226562 L -8.070312 -210.542969 L 78.921875 -210.542969 L 120.699219 -154.433594 L 116.292969 -151.152344 L 111.898438 -154.449219 L 153.972656 -210.542969 L 240.949219 -210.542969 L 157.300781 -99.226562 L 152.910156 -102.527344 Z M 146.039062 -102.527344 L 225.558594 -208.351562 L 229.953125 -205.050781 L 229.953125 -199.558594 L 156.71875 -199.558594 L 156.71875 -205.050781 L 161.113281 -201.757812 L 116.277344 -141.976562 L 71.757812 -201.773438 L 76.164062 -205.050781 L 76.164062 -199.558594 L 2.929688 -199.558594 L 2.929688 -205.050781 L 7.320312 -208.351562 L 86.839844 -102.527344 L 7.320312 3.300781 L 2.929688 0 L 2.929688 -5.492188 L 76.164062 -5.492188 L 76.164062 0 L 71.765625 -3.292969 L 116.277344 -62.75 L 161.105469 -3.308594 L 156.71875 0 L 156.71875 -5.492188 L 229.953125 -5.492188 L 229.953125 0 L 225.558594 3.300781 L 148.519531 -99.226562 Z M 178.691406 -20.132812 L 116.746094 -102.527344 L 178.691406 -184.917969 L 183.082031 -181.617188 L 183.082031 -176.125 L 168.4375 -176.125 L 168.4375 -181.617188 L 172.828125 -178.320312 L 116.28125 -103.03125 L 60.042969 -178.332031 L 64.445312 -181.617188 L 64.445312 -176.125 L 62.824219 -176.125 L 62.824219 -187.109375 L 62.84375 -187.109375 L 62.84375 -176.125 L 49.796875 -176.125 L 49.796875 -181.617188 L 54.175781 -184.9375 L 85.371094 -143.777344 C 95.839844 -129.984375 105.285156 -117.3125 113.703125 -105.761719 L 116.097656 -102.476562 L 54.1875 -20.132812 L 49.796875 -23.433594 L 49.796875 -28.925781 L 64.445312 -28.925781 L 64.445312 -23.433594 L 60.042969 -26.71875 L 115.964844 -101.703125 L 172.8125 -26.753906 L 168.4375 -23.433594 L 168.4375 -28.925781 L 170.230469 -28.925781 L 170.230469 -17.941406 L 170.160156 -17.941406 L 170.160156 -28.925781 L 183.082031 -28.925781 L 183.082031 -23.433594 Z M 187.472656 -26.734375 L 194.082031 -17.941406 L 170.160156 -17.941406 C 169.429688 -17.941406 168.730469 -18.082031 168.058594 -18.359375 C 167.382812 -18.640625 166.789062 -19.035156 166.273438 -19.550781 C 165.761719 -20.066406 165.363281 -20.660156 165.085938 -21.332031 C 164.804688 -22.003906 164.667969 -22.707031 164.667969 -23.433594 C 164.667969 -24.164062 164.804688 -24.863281 165.085938 -25.535156 C 165.363281 -26.210938 165.761719 -26.804688 166.273438 -27.320312 C 166.789062 -27.832031 167.382812 -28.230469 168.058594 -28.507812 C 168.730469 -28.789062 169.429688 -28.925781 170.160156 -28.925781 L 170.230469 -28.925781 C 170.957031 -28.925781 171.660156 -28.789062 172.332031 -28.507812 C 173.003906 -28.230469 173.597656 -27.832031 174.113281 -27.320312 C 174.628906 -26.804688 175.027344 -26.210938 175.304688 -25.535156 C 175.582031 -24.863281 175.722656 -24.164062 175.722656 -23.433594 C 175.722656 -22.707031 175.582031 -22.003906 175.304688 -21.332031 C 175.027344 -20.660156 174.628906 -20.066406 174.113281 -19.550781 C 173.597656 -19.035156 173.003906 -18.640625 172.332031 -18.359375 C 171.660156 -18.082031 170.957031 -17.941406 170.230469 -17.941406 L 165.707031 -17.941406 L 111.625 -89.246094 L 116 -92.566406 L 120.402344 -89.28125 L 67.199219 -17.941406 L 38.796875 -17.941406 L 104.875 -105.828125 L 109.261719 -102.527344 L 104.824219 -99.292969 C 96.449219 -110.785156 87.046875 -123.402344 76.617188 -137.144531 L 38.742188 -187.109375 L 62.84375 -187.109375 C 63.570312 -187.109375 64.273438 -186.972656 64.945312 -186.691406 C 65.617188 -186.414062 66.210938 -186.015625 66.726562 -185.5 C 67.242188 -184.988281 67.640625 -184.390625 67.917969 -183.71875 C 68.195312 -183.046875 68.335938 -182.347656 68.335938 -181.617188 C 68.335938 -180.890625 68.195312 -180.1875 67.917969 -179.515625 C 67.640625 -178.84375 67.242188 -178.25 66.726562 -177.734375 C 66.210938 -177.21875 65.617188 -176.820312 64.945312 -176.542969 C 64.273438 -176.265625 63.570312 -176.125 62.84375 -176.125 L 62.824219 -176.125 C 62.09375 -176.125 61.394531 -176.265625 60.71875 -176.542969 C 60.046875 -176.820312 59.453125 -177.21875 58.9375 -177.734375 C 58.421875 -178.25 58.027344 -178.84375 57.75 -179.515625 C 57.46875 -180.1875 57.328125 -180.890625 57.328125 -181.617188 C 57.328125 -182.347656 57.46875 -183.046875 57.75 -183.71875 C 58.027344 -184.390625 58.421875 -184.988281 58.9375 -185.5 C 59.453125 -186.015625 60.046875 -186.414062 60.71875 -186.691406 C 61.394531 -186.972656 62.09375 -187.109375 62.824219 -187.109375 L 67.199219 -187.109375 L 120.695312 -115.480469 L 116.292969 -112.191406 L 111.902344 -115.492188 L 165.691406 -187.109375 L 194.082031 -187.109375 L 128.007812 -99.226562 L 123.617188 -102.527344 L 128.007812 -105.828125 Z M 187.472656 -26.734375 "/></g></g></g></g></g></g><g clip-path="url(#349dabbba6)"><g transform="matrix(1, 0, 0, 1, 654, 200)"><g clip-path="url(#595f7938e1)"><g fill="#e2e8ce" fill-opacity="1"><g transform="translate(11.262156, 388.117251)"><g><path d="M 298.246094 8.605469 L 28.101562 8.605469 L 28.101562 -215.082031 L 137.078125 -215.082031 L 137.078125 -91.765625 L 128.472656 -91.765625 L 128.472656 -100.371094 L 252.359375 -100.371094 L 252.359375 -91.765625 L 243.757812 -91.765625 L 243.757812 -229.417969 L 252.359375 -229.417969 L 252.359375 -220.816406 L -6.308594 -220.816406 L -6.308594 -329.789062 L 301.808594 -329.789062 L 352.730469 -278.867188 L 352.730469 -42.320312 L 301.808594 8.605469 Z M 298.246094 -8.605469 L 298.246094 0 L 292.160156 -6.082031 L 338.042969 -51.96875 L 344.128906 -45.882812 L 335.523438 -45.882812 L 335.523438 -275.300781 L 344.128906 -275.300781 L 338.042969 -269.21875 L 292.160156 -315.101562 L 298.246094 -321.1875 L 298.246094 -312.582031 L 2.292969 -312.582031 L 2.292969 -321.1875 L 10.898438 -321.1875 L 10.898438 -229.417969 L 2.292969 -229.417969 L 2.292969 -238.023438 L 260.964844 -238.023438 L 260.964844 -83.164062 L 119.871094 -83.164062 L 119.871094 -206.476562 L 128.472656 -206.476562 L 128.472656 -197.875 L 36.707031 -197.875 L 36.707031 -206.476562 L 45.3125 -206.476562 L 45.3125 0 L 36.707031 0 L 36.707031 -8.605469 Z M 298.246094 -8.605469 "/></g></g></g><g fill="#e2e8ce" fill-opacity="1"><g transform="translate(378.319634, 388.117251)"><g/></g></g></g></g></g></g></g></svg>